<svg xmlns="http://www.w3.org/2000/svg" viewBox="0 0 64 64" role="img" aria-label="Live speaker diarization icon">
  <rect width="64" height="64" rx="14" fill="#050505"/>
  <path d="M13 18c0-3 2-5 5-5h28c3 0 5 2 5 5v28c0 3-2 5-5 5H18c-3 0-5-2-5-5V18Z" fill="#101010" stroke="#f5f5f2" stroke-opacity=".18" stroke-width="2"/>
  <circle cx="23" cy="24" r="5" fill="#ffffff"/>
  <circle cx="41" cy="40" r="5" fill="#79d9ff"/>
  <path d="M17 34h4l3-10 5 22 4-28 5 22 3-9h6" fill="none" stroke="#ffffff" stroke-width="4" stroke-linecap="round" stroke-linejoin="round"/>
  <path d="M17 45h7l3-7 4 7h16" fill="none" stroke="#79d9ff" stroke-width="4" stroke-linecap="round" stroke-linejoin="round"/>
  <path d="M32 13v38" stroke="#f5f5f2" stroke-opacity=".16" stroke-width="2" stroke-linecap="round"/>
</svg>
